<svg id="Réteg_1" data-name="Réteg 2" xmlns="http://www.w3.org/2000/svg" viewBox="0 0 38 51"><defs><style>.cls-1{fill:#fff;}</style></defs><path class="cls-1" d="M47.5,45a17,17,0,0,1-11-4V63.5h23V40.1A16.89,16.89,0,0,1,47.5,45Z" transform="translate(-29 -17)"/><path class="cls-1" d="M47.9,17c-7.23,0-13.09,5.6-13.09,12.5S40.67,42,47.9,42,61,36.4,61,29.5,55.14,17,47.9,17ZM36,28.5A2.5,2.5,0,1,1,38.5,31,2.5,2.5,0,0,1,36,28.5ZM48,40c-6.08,0-11-3.58-11-8H59C59,36.42,54.08,40,48,40Zm9.5-9A2.5,2.5,0,1,1,60,28.5,2.5,2.5,0,0,1,57.5,31Z" transform="translate(-29 -17)"/><path class="cls-1" d="M34.5,68V38.5c-4.89,0-5.5,4.76-5.5,4.76V68Z" transform="translate(-29 -17)"/><path class="cls-1" d="M61.5,68V38.5c4.89,0,5.5,4.76,5.5,4.76V68Z" transform="translate(-29 -17)"/></svg>
