<svg id="personIcon" data-name="Réteg 1" xmlns="http://www.w3.org/2000/svg" viewBox="0 0 38 57"><defs><style>.cls-1{fill:#fff;}</style></defs><path class="cls-1" d="M58.64,35.8A5.41,5.41,0,0,1,59,37.72c0,4.26-4.92,7.72-11,7.72S37,42,37,37.72a5.67,5.67,0,0,1,.14-1.17c-.21-.19-.43-.38-.64-.59v26.7h23V34.87C59.23,35.19,58.93,35.49,58.64,35.8Z" transform="translate(-29 -11)"/><path class="cls-1" d="M47.9,11c-7.23,0-13.09,6.65-13.09,14.84S40.67,40.69,47.9,40.69,61,34,61,25.84,55.14,11,47.9,11ZM36,24.66a2.77,2.77,0,0,1,2.5-3,2.77,2.77,0,0,1,2.5,3,2.77,2.77,0,0,1-2.5,3A2.77,2.77,0,0,1,36,24.66ZM48,38.31c-6.08,0-11-4.25-11-9.5H59C59,34.06,54.08,38.31,48,38.31Zm9.5-10.68a2.77,2.77,0,0,1-2.5-3,2.54,2.54,0,1,1,5,0A2.77,2.77,0,0,1,57.5,27.63Z" transform="translate(-29 -11)"/><path class="cls-1" d="M34.5,68V33c-4.89,0-5.5,5.65-5.5,5.65V68Z" transform="translate(-29 -11)"/><path class="cls-1" d="M61.5,68V33c4.89,0,5.5,5.65,5.5,5.65V68Z" transform="translate(-29 -11)"/></svg>
