<svg id="Réteg_1" data-name="Réteg 1" xmlns="http://www.w3.org/2000/svg" viewBox="0 0 72 60.81"><defs><style>.cls-1{fill:#fff;}</style></defs><path class="cls-1" d="M60.64,40.8A5.41,5.41,0,0,1,61,42.72c0,4.26-4.92,7.72-11,7.72S39,47,39,42.72a5.67,5.67,0,0,1,.14-1.17c-.21-.19-.43-.38-.64-.59v26.7h23V39.87C61.23,40.19,60.93,40.49,60.64,40.8Z" transform="translate(-19 -17.19)"/><path class="cls-1" d="M49.9,17.19c-7.23,0-13.09,6.65-13.09,14.84S42.67,46.88,49.9,46.88,63,40.23,63,32,57.14,17.19,49.9,17.19Zm1.72,13.67.75-.69a2.9,2.9,0,0,0,.15-4.08l-.7-.75a.41.41,0,0,1,0-.57l.51-.47a.41.41,0,0,1,.57,0l.69.75a2.89,2.89,0,0,0,4.08.15l.89-.82a.39.39,0,0,1,.57,0l.47.5a.42.42,0,0,1,0,.58l-.89.82a2.89,2.89,0,0,0-.15,4.07l.82.89a.39.39,0,0,1,0,.57l-.5.47a.42.42,0,0,1-.58,0l-.82-.89a2.89,2.89,0,0,0-4.07-.15l-.75.7a.41.41,0,0,1-.57,0l-.47-.5A.42.42,0,0,1,51.62,30.86Zm-11.08.21.73-.68a2.81,2.81,0,0,0,.14-4l-.67-.73a.4.4,0,0,1,0-.56l.49-.45a.4.4,0,0,1,.56,0l.67.73a2.82,2.82,0,0,0,4,.14l.86-.8a.4.4,0,0,1,.56,0l.45.49a.4.4,0,0,1,0,.56l-.86.8a2.81,2.81,0,0,0-.14,4l.8.86a.4.4,0,0,1,0,.56l-.49.45a.4.4,0,0,1-.56,0l-.8-.86a2.81,2.81,0,0,0-4-.14l-.73.67a.4.4,0,0,1-.56,0l-.45-.49A.4.4,0,0,1,40.54,31.07ZM50,44.5c-6.08,0-11-4.25-11-9.5H61C61,40.25,56.08,44.5,50,44.5Z" transform="translate(-19 -17.19)"/><path class="cls-1" d="M31,74.2l6.88-34.35c-4.8-1-6.51,4.46-6.51,4.46L25.61,73.12Z" transform="translate(-19 -17.19)"/><path class="cls-1" d="M68.72,73.21,62.38,38.76c4.8-.89,6.43,4.56,6.43,4.56l5.31,28.89Z" transform="translate(-19 -17.19)"/><path class="cls-1" d="M62,29.5v.06c0-.07,0-.14,0-.2A.66.66,0,0,1,62,29.5Z" transform="translate(-19 -17.19)"/><path class="cls-1" d="M91,78H29L19,70H78Z" transform="translate(-19 -17.19)"/></svg>