<svg id="Réteg_1" data-name="Réteg 1" xmlns="http://www.w3.org/2000/svg" viewBox="0 0 81 64"><defs><style>.cls-1{fill:#fff;}</style></defs><path class="cls-1" d="M68.33,56.73l-4.77-1.81c2.28,5.78,1,9,.44,10.08-3.27,6.39-16,8.8-31,3l.46,3.16A62.61,62.61,0,0,0,41.16,73c8.48,1.49,18.53,3.26,23.84-2C65.81,70.2,69.57,66.19,68.33,56.73Z" transform="translate(-11 -14)"/><path class="cls-1" d="M22.79,26.82l3.1,2C20.61,34,18.41,41.17,20.4,47.33a16.21,16.21,0,0,0,5.42,7.61l-.38,3.13a19.5,19.5,0,0,1-9-11.11C14.45,40,16.93,32.12,22.79,26.82Z" transform="translate(-11 -14)"/><path class="cls-1" d="M31,14A10,10,0,1,0,41,24,10,10,0,0,0,31,14Zm1.25,16.5a7.25,7.25,0,1,1,7.25-7.25A7.26,7.26,0,0,1,32.25,30.5Z" transform="translate(-11 -14)"/><path class="cls-1" d="M74,26A18,18,0,1,0,92,44,18,18,0,0,0,74,26ZM72.78,56a13.1,13.1,0,1,1,13.1-13.1A13.1,13.1,0,0,1,72.78,56Z" transform="translate(-11 -14)"/><path class="cls-1" d="M23,54A12,12,0,1,0,35,66,12,12,0,0,0,23,54Zm-.07,19.3a7.25,7.25,0,1,1,7.25-7.25A7.25,7.25,0,0,1,22.93,73.3Z" transform="translate(-11 -14)"/></svg>